# xmcd CD database file
#
# Track frame offsets:
#	150
#	20065
#	62189
#	79788
#	115104
#	144828
#	171836
#	209062
#	239145
#	258446
#
# Disc length: 4096 seconds
#
# Revision: 0
# Processed by: cddbd v1.5.2PL0 Copyright (c) Steve Scherf et al.
# Submitted via: CDex 1.70beta2
#
DISCID=930ffe0a
DTITLE=B3 - Memories In Melodies
DYEAR=2015
DGENRE=Jazz
TTITLE0=Centre Of The Universe
TTITLE1=After Seven Years
TTITLE2=Life Isn´t That Hard
TTITLE3=Another Thursday Blues
TTITLE4=Ten Times Ten
TTITLE5=Lullaby
TTITLE6=Regards To Marcus
TTITLE7=Solitude
TTITLE8=Unisono Song
TTITLE9=Inn The Limelight
EXTD=YEAR: 2015
EXTT0=
EXTT1=
EXTT2=
EXTT3=
EXTT4=
EXTT5=
EXTT6=
EXTT7=
EXTT8=
EXTT9=
PLAYORDER=
